<svg width="55" height="55" viewBox="0 0 55 55" fill="none" xmlns="http://www.w3.org/2000/svg">
	<path d="M48.125 22.9167C48.125 38.9583 27.5 52.7083 27.5 52.7083C27.5 52.7083 6.875 38.9583 6.875 22.9167C6.875 17.4466 9.04798 12.2005 12.9159 8.33259C16.7839 4.46466 22.0299 2.29167 27.5 2.29167C32.9701 2.29167 38.2161 4.46466 42.0841 8.33259C45.952 12.2005 48.125 17.4466 48.125 22.9167Z" stroke="#D9D9D9" stroke-opacity="1" stroke-width="4" stroke-linecap="round" stroke-linejoin="round"/>
	<path d="M27.5 29.7917C31.297 29.7917 34.375 26.7136 34.375 22.9167C34.375 19.1197 31.297 16.0417 27.5 16.0417C23.703 16.0417 20.625 19.1197 20.625 22.9167C20.625 26.7136 23.703 29.7917 27.5 29.7917Z" stroke="#D9D9D9" stroke-opacity="1" stroke-width="4" stroke-linecap="round" stroke-linejoin="round"/>
</svg>