<svg width="55" height="55" viewBox="0 0 55 55" fill="none" xmlns="http://www.w3.org/2000/svg">
<path d="M34.4896 11.4583C36.7279 11.8951 38.7851 12.9898 40.3977 14.6024C42.0102 16.215 43.105 18.2721 43.5417 20.5104M34.4896 2.29167C39.14 2.8083 43.4766 4.89082 46.7872 8.19731C50.0979 11.5038 52.1859 15.8377 52.7083 20.4875M50.4167 38.775V45.65C50.4193 46.2882 50.2885 46.92 50.0328 47.5048C49.7772 48.0895 49.4021 48.6145 48.9318 49.0459C48.4615 49.4774 47.9063 49.8059 47.3017 50.0104C46.6971 50.2148 46.0565 50.2908 45.4208 50.2333C38.369 49.4671 31.5952 47.0574 25.6438 43.1979C20.1067 39.6794 15.4122 34.985 11.8938 29.4479C8.02079 23.4694 5.61056 16.6627 4.85834 9.57917C4.80107 8.94545 4.87638 8.30675 5.07948 7.70373C5.28258 7.10071 5.60902 6.54658 6.03801 6.07664C6.467 5.60669 6.98914 5.23121 7.57119 4.97412C8.15324 4.71702 8.78245 4.58394 9.41875 4.58334H16.2938C17.4059 4.57239 18.4841 4.96623 19.3274 5.69143C20.1706 6.41664 20.7214 7.42374 20.8771 8.52501C21.1673 10.7252 21.7054 12.8854 22.4813 14.9646C22.7896 15.7848 22.8563 16.6763 22.6735 17.5333C22.4908 18.3903 22.0661 19.1769 21.45 19.8L18.5396 22.7104C21.8019 28.4477 26.5523 33.1981 32.2896 36.4604L35.2 33.55C35.8231 32.9339 36.6097 32.5092 37.4667 32.3265C38.3237 32.1437 39.2152 32.2104 40.0354 32.5188C42.1146 33.2946 44.2749 33.8327 46.475 34.1229C47.5882 34.28 48.6049 34.8407 49.3316 35.6984C50.0584 36.5562 50.4446 37.6511 50.4167 38.775Z" stroke="#D9D9D9" stroke-opacity="1" stroke-width="3.5" stroke-linecap="round" stroke-linejoin="round"/>
</svg>
