<svg width="235" height="41" viewBox="0 0 235 41" fill="none" xmlns="http://www.w3.org/2000/svg">
<path d="M29.669 40.5058H18.9086V25.1615H11.9551V40.467H0.961548V0.960194H11.9551V15.7218H18.9086V0.960194H29.669V40.5058ZM78.9263 40.6612C89.9198 40.6612 98.8934 31.4935 98.8934 20.3834C98.8934 9.04025 89.9198 0.299805 78.9263 0.299805C67.7774 0.299805 62.1446 8.4187 60.785 11.6818C60.785 6.78716 55.8904 0.921347 50.2188 0.921347H31.8833V40.467H48.9757C55.9292 40.467 60.8239 34.5235 60.8239 29.3181C62.3389 32.5812 67.7774 40.6612 78.9263 40.6612ZM47.5772 24.6177C49.1699 24.6177 50.4519 26.1715 50.4519 27.9196C50.4519 29.7842 49.1699 31.2992 47.5772 31.2992H42.1387V24.6177H47.5772ZM47.5772 9.77833C49.1699 9.77833 50.4519 11.3322 50.4519 13.0803C50.4519 14.8284 49.1699 16.3822 47.5772 16.3822H42.1387V9.77833H47.5772ZM54.8027 20.3834C56.0846 20.3057 58.1435 18.8295 58.9592 17.9749C58.6485 19.0238 58.6485 22.3646 58.9592 23.4134C58.0658 22.1315 56.0846 20.5776 54.8027 20.3834ZM68.9039 20.3834C68.9039 14.8284 73.4101 10.3222 79.004 10.361C84.5979 10.3999 89.0652 14.9449 88.9875 20.5388C88.9098 26.055 84.4425 30.4835 78.9651 30.4835C73.3713 30.4446 68.9039 25.9773 68.9039 20.3834ZM78.9263 28.3081C83.1994 28.3081 86.8121 24.773 86.8121 20.3834C86.8121 15.9938 83.1994 12.4976 78.9263 12.4976C74.5367 12.4976 71.0016 15.9938 71.0016 20.3834C71.0016 24.773 74.5367 28.3081 78.9263 28.3081ZM156.308 14.9449C156.114 5.38868 149.355 0.299805 141.042 0.299805C136.458 0.299805 132.379 1.81482 129.582 4.80599C126.746 1.81482 122.667 0.299805 118.083 0.299805C109.77 0.299805 103.011 5.38868 102.778 14.9837V36.8931C102.778 38.9131 104.41 40.5447 106.43 40.5447H109.848C110.198 40.5447 110.47 40.2728 110.47 39.9231V15.0614C110.625 10.3222 113.966 7.83601 118.083 7.83601C122.201 7.83601 125.581 10.3222 125.697 15.0614V36.8931C125.697 38.9131 127.329 40.5447 129.349 40.5447H132.767C133.117 40.5447 133.389 40.2728 133.389 39.9231V15.0614C133.544 10.3222 136.885 7.83601 141.003 7.83601C145.121 7.83601 148.5 10.3222 148.617 15.0614V36.8931C148.617 38.9131 150.248 40.5447 152.268 40.5447H155.687C156.036 40.5447 156.308 40.2728 156.308 39.9231V15.0614C156.347 15.0226 156.308 14.9837 156.308 14.9449ZM233.574 0.960194H227.747C226.154 0.960194 224.639 1.77597 223.746 3.09675L217.297 12.653C216.443 13.896 214.617 13.896 213.801 12.653L207.353 3.09675C206.459 1.77597 204.944 0.960194 203.351 0.960194H197.524C197.175 0.960194 196.942 1.34866 197.136 1.65943L208.634 18.713C209.45 19.9561 209.45 21.5488 208.634 22.7919L197.136 39.8066C196.942 40.1174 197.136 40.5058 197.524 40.5058H203.351C204.944 40.5058 206.459 39.6901 207.353 38.3693L213.801 28.8131C214.656 27.57 216.481 27.57 217.297 28.8131L223.746 38.3693C224.639 39.6901 226.154 40.5058 227.747 40.5058H233.574C233.923 40.5058 234.157 40.1174 233.962 39.8066L222.464 22.753C221.648 21.5099 221.648 19.9172 222.464 18.6742L233.962 1.62058C234.157 1.34866 233.962 0.960194 233.574 0.960194ZM194.494 0.960194H191.076C189.328 0.960194 187.89 2.20328 187.541 3.83483C184.472 1.50404 180.665 0.338651 176.508 0.338651C166.408 0.299805 158.29 7.29216 158.29 20.4999C158.29 33.7077 166.447 40.7001 176.47 40.7001C180.587 40.7001 184.394 39.5347 187.424 37.2427C187.58 39.1074 189.134 40.5447 191.037 40.5447H194.456C194.805 40.5447 195.077 40.2728 195.077 39.9231V1.54289C195.077 1.23212 194.805 0.960194 194.494 0.960194ZM176.47 33.1639C170.487 33.1639 165.593 28.7742 165.593 20.4999C165.593 12.2257 170.448 7.83601 176.47 7.83601C182.491 7.83601 187.347 12.2257 187.347 20.4999C187.347 28.7742 182.491 33.1639 176.47 33.1639Z" fill="#ACB2BC" fill-opacity="0.37"/>
</svg>
