<svg width="205" height="56" viewBox="0 0 205 56" fill="none" xmlns="http://www.w3.org/2000/svg">
<path d="M28.643 51.9605C25.5908 52.4958 22.4622 52.6488 19.2192 53.1076L9.33762 24.1617V54.3313L0.562454 55.5166V0.224854H8.76533L19.9823 31.5798V0.224854H28.643V51.9605ZM45.5829 20.4909L57.1051 20.3379V28.9796L45.5829 29.0943V41.9422L60.8441 41.0245V49.3603L36.9603 51.234V0.224854H60.8441V8.86658H45.5829V20.4909ZM92.8925 8.86658H83.9647V48.5956L75.3422 48.7103V8.86658H66.4144V0.224854H92.8925V8.86658ZM106.895 19.879H118.684V28.5208H106.895V48.1367H98.4247V0.224854H122.499V8.86658H106.895V19.879ZM136.539 40.5657L151.19 41.3304V49.8574L127.917 48.7103V0.224854H136.539V40.5657ZM158.439 50.431L166.909 51.081V0.224854H158.439V50.431ZM204.681 0.224854L193.731 26.5324L204.681 55.5166L194.99 53.9489L188.809 37.9655L182.514 52.6488L173.243 51.5017L184.345 26.1883L174.311 0.224854H183.582L189.229 14.7552L195.257 0.224854H204.681Z" fill="#ACB2BC" fill-opacity="0.37"/>
</svg>
