<svg width="218" height="135" viewBox="0 0 218 135" fill="none" xmlns="http://www.w3.org/2000/svg">
<path d="M96.6553 69.4718C96.1169 69.2328 95.2196 68.2768 96.7151 65.5283L100.065 58.4778C100.185 58.2388 99.9455 57.9998 99.766 58.179L96.8348 61.1665C95.4589 62.6005 93.066 66.7233 92.5875 67.5L88.9982 73.4153C89.3571 73.4153 89.5964 73.8335 89.4169 74.1323L86.1268 79.6293C85.3491 81.0035 86.7848 81.9595 86.9643 81.6608C92.1089 73.3555 95.1 74.0128 95.1 74.0128L96.8348 70.0095C97.0143 69.7705 96.8946 69.5315 96.6553 69.4718Z" fill="#ACB2BC" fill-opacity="0.37"/>
<path d="M108.38 0.102051C78.8883 0.102051 54.9598 24.0021 54.9598 53.4588C54.9598 65.3491 58.8482 76.2833 65.3687 85.1263C67.5821 84.1703 68.8383 82.7363 69.7357 81.6011L79.666 68.8743C79.9053 68.6353 80.1446 68.3963 80.4437 68.2768L81.9392 67.6196L98.2705 46.8863L100.663 45.034L105.509 38.2823C105.629 38.1031 105.808 37.9238 105.987 37.8043L108.141 36.2508C108.679 35.8923 109.397 35.8326 109.936 36.2508L112.508 38.0433C113.884 38.9993 114.961 40.2541 115.738 41.7478L126.087 59.8521C126.327 60.2703 126.506 60.4496 126.925 60.6288C128.959 61.6446 130.155 61.8238 132.847 64.6918C134.104 66.0661 139.487 72.1008 147.085 81.4816C148.162 82.9156 149.478 84.1106 151.392 84.9471C157.912 76.1041 161.801 65.1698 161.801 53.3393C161.801 24.0021 137.872 0.102051 108.38 0.102051ZM69.3767 56.3268L65.9071 55.1916L63.7535 58.1193V54.4746L60.2839 53.3393L63.7535 52.2041V48.5593L65.9071 51.4871L69.3767 50.3518L67.2232 53.2796L69.3767 56.3268ZM68.5991 68.2768L67.4625 71.7423L66.3258 68.2768H62.6767L65.608 66.1258L64.4714 62.6603L67.4026 64.8113L70.3339 62.6603L69.1973 66.1258L72.1285 68.2768H68.5991ZM69.2571 40.7321L70.3937 44.1976L67.4625 42.0466L64.5312 44.1976L65.6678 40.7321L62.7366 38.5811H66.3857L67.5223 35.1156L68.6589 38.5811H72.308L69.2571 40.7321ZM75.1196 32.9048L72.966 29.9771L69.4964 31.1123L71.65 28.1846L69.4964 25.2568L72.966 26.3921L75.1196 23.4643V27.1091L78.5892 28.2443L75.1196 29.3796V32.9048ZM84.2125 20.1781L83.0758 23.6436L81.9392 20.1781H78.2901L81.2214 18.0271L80.0848 14.5616L83.016 16.7126L85.9473 14.5616L84.8107 18.0271L87.7419 20.1781H84.2125ZM95.6982 14.3823L93.5446 17.3101V13.6653L90.075 12.5301L93.5446 11.3948V7.8098L95.6982 10.7376L99.1678 9.6023L97.0142 12.5301L99.1678 15.4578L95.6982 14.3823ZM110.235 10.9766L111.371 14.4421L108.44 12.2911L105.509 14.4421L106.645 10.9766L103.714 8.82555H107.363L108.5 5.36005L109.637 8.82555H113.286L110.235 10.9766ZM123.276 13.6653V17.3101L121.122 14.3823L117.653 15.5176L119.806 12.5898L117.653 9.66205L121.122 10.7973L123.276 7.86955V11.5143L126.745 12.6496L123.276 13.6653ZM147.384 50.4116L150.854 51.5468L153.007 48.6191V52.2638L156.477 53.3991L153.007 54.5343V58.1791L150.854 55.2513L147.384 56.3866L149.537 53.4588L147.384 50.4116ZM133.685 23.6436L132.548 20.1781H128.899L131.83 18.0271L130.694 14.5616L133.625 16.7126L136.556 14.5616L135.42 18.0271L138.351 20.1781H134.821L133.685 23.6436ZM141.701 32.9048V29.3198L138.231 28.1846L141.701 27.0493V23.4046L143.854 26.3323L147.324 25.1971L145.17 28.1248L147.324 31.0526L143.854 29.9173L141.701 32.9048ZM148.221 38.5811L149.358 35.1156L150.495 38.5811H154.144L151.212 40.7321L152.349 44.1976L149.418 42.0466L146.487 44.1976L147.623 40.7321L144.692 38.5811H148.221ZM150.495 68.2768L149.358 71.7423L148.221 68.2768H144.572L147.504 66.1258L146.367 62.6603L149.298 64.8113L152.229 62.6603L151.093 66.1258L154.024 68.2768H150.495Z" fill="#ACB2BC" fill-opacity="0.37"/>
<path d="M127.762 84.2899C128.002 83.9314 128.42 82.9156 127.643 81.0036L125.31 74.6701C125.011 73.8336 125.669 73.3556 126.147 73.8934C126.147 73.8934 130.634 79.0319 131.77 81.1829L133.984 84.8276C135.898 84.9471 141.103 85.1264 146.128 85.1264C145.649 84.6484 145.17 84.1106 144.692 83.5131C136.078 72.8776 130.634 66.9624 130.634 66.9026C128.899 64.9906 128.062 64.6321 126.745 64.0346C126.566 63.9749 126.327 63.8554 126.147 63.7359V65.3491C126.147 65.5881 125.908 65.6479 125.788 65.4686L113.166 43.3014L113.106 43.2416C112.568 42.2259 111.79 41.3296 110.833 40.6126L109.577 39.7761L103.535 53.6381C104.492 53.6381 105.09 54.5941 104.731 55.4306L99.1678 68.2769H104.253C106.227 68.2769 108.201 68.6354 109.995 69.4121L111.312 69.9499C111.312 69.9499 107.244 78.3149 107.244 82.6766C107.244 83.4534 107.363 84.2899 107.603 85.0666H116.935L116.516 82.4376C116.636 82.3779 122.259 83.7521 127.762 84.2899Z" fill="#ACB2BC" fill-opacity="0.37"/>
<path d="M55.4982 97.7934C55.4982 89.1894 46.4053 85.0667 35.5777 85.0667C23.9723 85.0667 13.3839 90.2052 9.43569 98.1519C8.3589 100.243 7.82051 102.633 7.82051 104.963C7.76069 107.055 8.3589 109.086 9.43569 110.759C11.1107 113.209 14.1018 114.762 18.4687 114.762C23.8527 114.762 28.1 111.835 28.1 106.696C28.1 106.696 28.1598 105.262 26.4848 105.262C25.1089 105.262 24.75 106.218 24.8098 106.696C24.9893 110.699 22.5964 113.926 18.3491 113.926C13.5634 113.926 11.5893 109.863 11.5893 105.561C11.5893 96.7179 18.2893 90.8027 25.2285 88.2334C28.5187 86.9787 31.9286 86.3812 35.3982 86.4409C43.2946 86.4409 49.7553 89.4882 49.7553 97.5544C49.7553 104.306 44.0723 110.102 37.2527 110.58L37.5518 109.684C38.9277 104.724 40.6625 99.2872 43.4741 95.2242C43.6535 94.9852 43.8928 94.5669 44.2518 94.2084L43.833 93.7304C43.2348 94.0889 42.6964 94.5072 42.0982 94.9254C29.0571 105.083 28.6384 133.763 11.2303 133.763C10.6321 133.763 10.0339 133.703 9.43569 133.643C5.78658 133.046 3.93212 130.596 3.93212 127.25C3.93212 126.593 4.1714 125.637 4.1714 125.159C4.23122 124.203 3.39372 123.366 2.43658 123.366H2.25712C0.701761 123.366 0.0437226 124.621 0.0437226 126.354C-0.0759203 131.373 3.69283 134.36 9.43569 134.898C10.0937 134.958 10.6919 134.958 11.4098 134.958C24.9893 134.958 33.3044 124.681 36.8339 112.253C38.6285 112.074 40.4232 111.655 42.158 111.118C48.3794 109.445 55.4982 105.143 55.4982 97.7934Z" fill="#ACB2BC" fill-opacity="0.37"/>
<path d="M184.772 100.781H179.987L178.91 103.29L177.055 107.533H174.842L174.184 108.967H176.517L173.705 115.121C171.731 119.483 168.621 123.725 166.826 123.725C166.407 123.725 166.168 123.546 166.168 123.187C166.168 122.829 166.287 122.41 166.706 121.335C167.245 120.02 168.202 118.108 168.86 116.734C169.877 114.703 171.432 111.596 171.432 110.042C171.432 108.489 170.415 107.234 168.501 107.234C166.287 107.234 164.313 108.548 162.519 110.46L163.715 107.592H159.229L155.579 115.957C154.084 118.885 151.093 123.785 149.238 123.785C148.82 123.785 148.7 123.546 148.7 123.127C148.76 122.769 148.82 122.47 148.999 122.112C149.179 121.753 151.332 116.615 151.332 116.615L155.34 107.533H150.375L146.487 116.376C145.29 119.124 142.239 123.785 140.325 123.785C140.026 123.844 139.667 123.605 139.667 123.247V123.068C139.667 122.59 140.026 121.693 140.325 121.096L142.359 116.615L146.546 107.533H141.701L140.744 109.624C140.026 110.998 138.829 112.671 136.915 112.671C136.018 112.671 135.539 112.313 135.36 111.954C135.061 108.907 133.146 107.294 130.275 107.294C126.327 107.294 123.455 109.624 121.601 112.492C120.345 114.464 119.387 116.615 118.729 118.825C116.995 121.634 115.2 123.844 113.764 123.844C113.405 123.844 113.166 123.665 113.166 123.187C113.166 122.709 113.645 121.634 113.824 121.215L116.995 114.523C117.892 112.432 118.49 111.118 118.49 109.743C118.49 108.309 117.473 107.294 115.858 107.294C113.585 107.294 111.132 108.608 109.158 110.759C109.218 110.401 109.218 110.102 109.218 109.743C109.218 108.13 108.44 107.353 106.765 107.353C104.671 107.353 102.518 108.608 100.604 110.819L101.86 107.712H97.4928L93.7839 116.077C92.0491 120.02 89.1777 123.904 87.6223 123.904C87.2634 123.904 87.0241 123.725 87.0241 123.247C87.0241 122.47 87.8616 120.618 88.1607 119.841L93.066 108.728C93.425 107.891 91.0919 107.353 88.1009 107.353C85.05 107.353 81.8794 108.847 79.6062 110.819C77.991 112.193 76.7946 112.85 76.1964 112.85C75.8973 112.85 75.7776 112.671 75.7776 112.492C75.7776 111.835 77.3928 109.923 77.3928 108.429C77.3928 107.772 77.0339 107.294 76.1366 107.294C74.4018 107.294 72.308 108.967 70.8125 110.699L72.0687 107.652H67.7616L64.0526 116.017C62.3178 119.961 59.3866 124.083 57.7714 124.083C57.4125 124.083 57.1732 123.904 57.1732 123.426C57.1732 122.649 57.9509 120.857 58.4294 119.901L63.3348 108.787C63.6937 107.951 61.3607 107.413 58.3696 107.413C53.9428 107.413 49.6357 110.401 47.3625 113.448C44.85 116.734 43.1151 120.259 43.1151 123.127C43.0553 125.458 44.2518 126.892 46.6446 126.892C49.3366 126.892 51.4901 124.8 52.6866 123.187C52.6268 123.486 52.5669 123.844 52.5071 124.143C52.5071 125.756 53.1651 126.892 55.0794 126.892C56.8143 126.892 59.0875 125.458 60.8821 123.187L59.3866 126.593H64.0526L68.6589 116.196C70.1544 112.791 71.8893 111.058 72.3678 111.058C72.5473 111.058 72.6071 111.118 72.6071 111.237C72.6071 111.596 71.8893 112.552 71.8893 113.388C71.8893 114.284 72.3678 114.942 73.6241 114.942C74.641 114.942 75.7178 114.464 76.7348 113.806C74.4018 116.973 72.7866 120.319 72.7866 123.068C72.7268 125.398 73.9232 126.832 76.316 126.832C78.8285 126.832 81.1616 124.442 82.4776 122.829C82.4178 123.187 82.4178 123.546 82.4178 123.964C82.4178 125.517 83.3151 126.832 85.1098 126.832C87.0839 126.832 88.6991 125.577 90.6732 123.187L89.1776 126.533H93.9634L98.3303 116.615C100.245 112.313 102.817 110.042 104.133 110.042C104.432 109.982 104.731 110.221 104.791 110.58V110.699C104.731 111.177 104.612 111.655 104.372 112.074L98.091 126.593H102.996L107.483 116.495C109.397 112.133 111.491 110.042 113.106 110.042C113.585 110.042 113.764 110.281 113.764 110.819C113.704 111.357 113.585 111.954 113.346 112.432L109.038 121.574C108.62 122.47 108.38 123.426 108.321 124.382C108.321 125.756 109.098 127.011 111.252 127.011C114.063 127.011 116.157 124.92 118.55 121.753V122.41C118.729 124.92 120.165 127.131 123.874 127.131C128.241 127.131 131.83 124.083 133.924 119.303C134.702 117.571 135.3 115.778 135.479 113.926C135.958 114.165 136.496 114.284 137.035 114.225C137.753 114.225 138.471 114.045 139.129 113.687L138.351 115.3C137.454 117.152 136.496 119.184 135.779 120.857C135.3 121.873 135.001 122.948 134.941 124.083C134.941 125.816 135.898 127.011 137.872 127.011C139.846 127.011 142.479 125.159 144.393 122.59H144.453C144.333 123.127 144.273 123.665 144.273 124.203C144.273 125.637 144.692 127.011 146.726 127.011C149.059 127.011 150.854 125.338 152.588 123.247L151.093 126.593H155.879L159.767 117.869C161.98 112.91 164.134 109.982 166.168 109.982C166.527 109.982 166.826 110.221 166.826 110.58V110.699C166.826 111.536 165.629 113.806 164.553 116.077C163.536 118.168 162.818 119.722 162.279 120.976C161.801 121.992 161.502 123.127 161.442 124.263C161.442 125.756 162.279 126.951 164.134 126.951C166.946 126.951 169.757 124.263 171.253 122.231C170.894 123.247 170.714 124.203 170.714 125.278C170.714 128.087 172.389 129.461 174.722 129.461C176.278 129.461 177.773 128.923 179.089 128.027C180.944 126.772 182.379 124.86 183.636 123.127L182.798 122.351C181.662 123.964 180.346 125.517 179.029 126.473C178.312 127.071 177.474 127.37 176.577 127.429C175.56 127.429 174.962 126.892 174.962 125.637C174.962 124.382 175.56 122.649 176.457 120.319C176.517 120.259 177.833 117.332 179.029 114.523C180.046 112.133 181.123 109.803 181.303 109.325H184.473L185.131 107.891H182.021L184.772 100.781ZM48.9776 123.665C48.3196 123.665 47.841 123.426 47.841 122.53C47.9009 120.2 49.8151 116.017 52.2678 112.671C54.0026 110.341 56.216 108.668 58.6089 108.668L55.558 115.42C53.2848 120.558 50.8321 123.665 48.9776 123.665ZM78.7687 123.665C78.1107 123.665 77.6321 123.426 77.5723 122.53C77.6321 120.2 79.5464 116.017 81.9991 112.671C83.7339 110.341 85.9473 108.668 88.3401 108.668L85.2893 115.42C83.016 120.678 80.6232 123.665 78.7687 123.665ZM131.651 110.52C131.531 113.089 129.258 119.363 126.626 123.068C125.549 124.561 124.652 125.039 123.814 125.039C122.678 125.039 122.379 124.143 122.558 122.769C122.797 120.439 124.771 114.942 127.463 111.177C128.72 109.445 129.557 108.728 130.514 108.728C131.412 108.728 131.711 109.504 131.651 110.52Z" fill="#ACB2BC" fill-opacity="0.37"/>
<path d="M205.949 107.413L210.316 97.3152H205.171L200.745 107.413H189.737L187.883 111.715H198.95L194.523 121.872H199.728L204.095 111.715H215.162L217.016 107.413H205.949Z" fill="#ACB2BC" fill-opacity="0.37"/>
</svg>
