<svg width="241" height="126" viewBox="0 0 241 126" fill="none" xmlns="http://www.w3.org/2000/svg">
<path d="M99.1696 63.9651C98.6145 63.9742 96.9856 63.9924 95.8299 64.0015C98.9967 60.8711 100.799 56.9854 100.799 53.1634C100.799 50.8884 100.225 49.3141 98.3051 46.1564C95.9027 42.2252 95.4022 40.8511 95.4022 38.4123C95.4022 35.6914 96.4123 32.6338 98.114 30.2132C98.7146 30.2041 100.298 30.1859 101.354 30.1677C99.3607 32.6611 98.1868 35.5822 98.1868 38.112C98.1868 40.5326 98.5508 41.297 101.09 45.4921C102.919 48.4496 103.583 50.5335 103.583 53.1816C103.592 57.0855 102.027 60.8984 99.1696 63.9651ZM103.255 45.0826C100.707 40.8966 100.471 40.5053 100.471 38.6398C100.471 37.7571 100.571 36.929 100.78 35.9098C101.071 34.6267 101.79 33.4255 102.628 32.1515L103.346 31.0413L104.975 28.8027H104.138L97.4588 28.9665L97.1494 29.4033C95.1838 32.1151 94.0281 35.4912 94.0281 38.5761C94.0281 40.2778 94.2647 41.5609 95.0837 43.3081C95.5387 44.5548 96.3304 45.9926 97.5589 48.0037C98.1868 49.0229 98.6418 49.8419 98.9785 50.5517C99.2879 51.4344 99.4153 52.2079 99.4153 53.1452C99.4153 56.8034 97.4952 60.5617 94.1555 63.4919L93.3638 64.1744L92.2627 66.4221L100.189 66.6951L101.463 65.3938C103.292 63.4828 104.32 61.5991 104.894 59.5243C104.894 59.5243 105.276 58.4596 105.494 57.2857C105.758 55.9753 105.831 54.9288 105.831 53.5001C105.822 50.5881 105.248 48.2949 103.255 45.0826Z" fill="#ACB2BC" fill-opacity="0.37"/>
<path d="M171.105 26.4094C160.394 10.8575 143.032 0.301514 121.419 0.301514C97.9775 0.301514 81.5793 10.8757 71.4419 26.4276L71.5875 26.4549C79.2042 17.4641 90.3881 10.6755 102.691 7.16291C102.4 7.39041 102.236 7.59971 102.209 7.77261C100.507 8.83731 101.108 10.0567 100.243 10.3297C98.7783 10.8211 97.1949 15.2983 97.1949 15.2983C97.1949 15.2983 98.1049 15.908 95.2475 19.1021C92.8906 21.732 92.2172 25.7087 92.2172 25.7087C92.2172 25.7087 93.2455 28.0565 92.9634 31.3234L93.1818 30.5863C94.2101 27.4377 96.4942 26.2274 96.4942 26.2274L106.704 26.1273L108.006 28.0383C111.964 24.5166 117.661 25.463 120.491 27.5287L121.255 25.9089L126.706 25.9362L127.862 25.9453C128.026 25.7087 128.199 25.4448 128.344 25.1445C129.427 22.9605 129.973 21.2406 130.865 21.0586C132.093 20.822 132.885 18.6471 132.885 18.6471C132.885 18.6471 133.076 18.6471 133.367 18.4014C133.34 18.4378 134.232 18.4014 134.232 18.4014C134.159 18.4014 134.377 18.0283 135.196 17.8554L135.915 17.8281C135.843 17.7371 136.707 17.2457 136.707 17.2457C135.843 15.362 136.753 15.0708 138.127 14.4156L137.763 13.6512L137.235 13.0142C137.262 12.7412 136.343 11.8312 136.134 11.8312L135.224 12.1042L135.105 11.0213C135.105 11.0213 134.987 10.9485 133.449 11.2215C133.713 10.2205 131.556 9.03751 130.956 8.64621C131.029 9.51071 129.636 9.92021 129.081 9.59261C128.29 7.57241 127.853 8.98291 125.405 7.98191C125.023 9.88381 126.169 10.2933 126.706 10.8666C126.251 11.4126 126.97 12.541 126.269 12.9414C125.596 14.1517 124.44 13.7513 123.03 12.6775C122.429 11.4945 117.77 11.4672 117.051 10.3297C117.725 9.01021 123.366 4.29641 132.039 5.43391C131.966 5.39751 131.875 5.37021 131.802 5.34291C147.272 7.79081 161.65 15.544 170.996 26.3639" fill="#ACB2BC" fill-opacity="0.37"/>
<path d="M15.5497 67.1229C15.5497 71.0086 13.3657 73.9661 9.8349 74.8488C8.206 75.2765 6.8319 75.0945 5.9219 74.3574C4.9391 73.5566 4.4113 72.1097 4.4113 70.1623V40.3871C4.8208 40.2415 6.4315 39.6409 7.1959 39.3406V69.225C7.1959 70.3716 7.4871 71.1997 8.0604 71.6638C8.5609 72.0733 9.2343 72.1734 10.0806 71.9641C11.3091 71.6547 12.7742 70.7265 12.7742 68.0602V37.4478C13.4203 37.284 14.7944 36.8017 15.5588 36.6015M17.0148 34.6905L11.1544 36.374V67.8691C11.1544 69.1431 10.7176 69.7073 10.2171 69.9894C10.026 70.0804 9.5892 69.862 9.5892 69.4525V36.8927L8.7247 37.2294L2.837 39.4225V69.9348C2.837 72.0915 3.4103 73.7932 4.4932 74.9125C4.9755 75.5131 5.7217 76.3867 5.931 76.4959C7.7328 77.5333 8.8885 77.779 10.9997 77.2603C15.2221 76.1956 18.3252 72.8286 18.3252 68.2331V34.3174L17.0148 34.6905Z" fill="#ACB2BC" fill-opacity="0.37"/>
<path d="M32.4302 69.6709C31.7841 69.7801 30.4373 70.0167 29.6638 70.1623V59.1968L24.3767 50.7429V53.7004V71.1633C23.8944 71.2634 22.3383 71.6001 21.6103 71.7366V40.2597L29.6547 53.9916V36.5742C30.1552 36.4832 31.7204 36.2466 32.4211 36.1283M33.8043 34.4448L27.9894 35.4276V47.5033L20.764 35.3821L19.9996 35.5277V73.8205L21.9925 74.6304L26.4333 73.5475V72.7103V57.5679L27.9985 59.8884V72.2735L29.9914 73.0743L34.96 72.228V34.2537L33.8043 34.4448Z" fill="#ACB2BC" fill-opacity="0.37"/>
<path d="M41.148 68.3149C40.5929 68.3786 39.0095 68.6425 38.3361 68.7153V35.1727C39.0368 35.0999 40.4018 34.8269 41.148 34.7359M42.422 33.1616L36.7982 33.9442V70.6991L38.4999 71.3725L43.6414 70.8356V32.9978L42.422 33.1616Z" fill="#ACB2BC" fill-opacity="0.37"/>
<path d="M53.0144 65.139L46.6717 33.9169C47.4361 33.8259 48.8375 33.7076 49.5291 33.6166C49.6929 34.4174 52.2409 47.5487 52.2409 47.5487L52.9871 51.2706L53.7515 47.5487L56.4633 32.8704C56.9911 32.8431 58.7929 32.6793 59.2479 32.6975C58.4926 36.6833 54.3794 58.041 53.0144 65.139ZM61.1771 31.0868L55.2439 31.5873C55.2439 31.5873 54.3339 36.4103 53.5149 40.6873L51.886 31.9604L50.8304 32.0878L44.9245 32.7612L52.2045 68.5697L52.8051 69.5707L53.433 69.5434L53.888 69.4797L54.798 69.5161L54.9436 68.8791L62.4147 30.9685L61.1771 31.0868Z" fill="#ACB2BC" fill-opacity="0.37"/>
<path d="M74.9363 34.1899L68.8393 34.5357L68.1204 34.5812V35.3456V40.1413V40.9876L68.9394 40.9421L74.9454 40.6054V43.2535C73.5076 43.3263 68.8484 43.5993 68.8484 43.5993L68.1295 43.6357V44.4001V60.1522V60.8256C68.1295 61.3898 68.2751 61.8084 68.5572 62.0996C68.8939 62.409 69.3489 62.5364 69.9768 62.5C69.9768 62.5 74.1537 62.2634 74.9454 62.2088V65.0662C73.6714 65.139 69.9222 65.3574 69.9222 65.3574C68.4116 65.4484 67.2832 65.1299 66.537 64.411C65.6998 63.6011 65.3085 62.2725 65.3085 60.3706V32.1333C66.0547 32.0969 74.0991 31.4508 74.9363 31.3962M76.456 29.9584L63.7797 30.8684V60.2705C63.7797 62.3271 64.2165 63.8741 65.0992 64.9752C65.3358 65.3483 65.5997 65.685 65.9637 66.0217C67.0193 67.0409 68.5299 67.505 70.4591 67.3958L77.0839 67.2957V60.407L76.456 60.4343L70.3044 60.7255V46.0108L77.0748 45.6104V39.0311L76.4469 39.0675C76.4469 39.0675 72.1699 39.2768 70.2953 39.3769V37.0564L77.0657 36.656V29.9402L76.456 29.9584Z" fill="#ACB2BC" fill-opacity="0.37"/>
<path d="M119.535 63.6467H116.724V43.6722V42.8714H115.959H112.137H111.373V43.6722V63.6922L108.561 63.7559V36.2921C108.561 32.2881 110.699 29.7856 114.157 29.7856C117.588 29.7856 119.535 32.1607 119.535 36.2921M114.212 28.4661C109.962 28.4661 107.105 31.6875 107.105 36.4832V66.1492H113.566V45.6378H115.058V66.1492H121.546V36.4832C121.528 31.5419 118.462 28.4661 114.212 28.4661ZM115.076 38.7764H113.511V37.6298C113.511 35.8462 113.702 35.6096 114.276 35.6096C114.876 35.6096 115.067 35.8462 115.067 37.6298V38.7764H115.076ZM114.039 32.6521C111.682 32.6521 111.373 34.5904 111.373 36.3831V40.2324H116.733V36.3831C116.733 34.5904 116.414 32.6521 114.039 32.6521Z" fill="#ACB2BC" fill-opacity="0.37"/>
<path d="M134.741 63.783C133.64 63.7739 131.02 63.7466 131.02 63.7466C126.915 63.7011 125.469 62.0904 125.469 57.595V29.9674C126.188 29.9674 127.58 30.0038 128.299 30.0038V57.7679C128.299 60.416 128.535 60.9893 130.992 61.0166C130.992 61.0166 133.659 61.0439 134.741 61.053M130.947 59.3331C130.537 59.324 130.082 59.324 129.937 59.2694C129.837 59.0237 129.837 58.232 129.837 57.6951V28.7025L123.858 28.657L123.257 28.6206V59.1602C123.257 64.4746 125.66 66.2127 130.628 66.2673L135.915 66.3128L136.225 65.5484V59.3786L130.947 59.3331Z" fill="#ACB2BC" fill-opacity="0.37"/>
<path d="M148.956 64.1836C148.355 64.1745 146.672 64.1381 145.543 64.1108C148.737 60.8257 150.585 56.6579 150.585 52.5174C150.585 50.0695 150.011 48.3769 148.091 44.9007C145.689 40.56 145.161 39.0494 145.161 36.4104C145.161 33.462 146.217 30.2042 147.927 27.6198C148.555 27.6289 150.111 27.7836 151.149 27.8109C149.129 30.4408 147.982 33.4529 147.982 36.2011C147.982 38.7946 148.346 39.6227 150.867 44.2182C152.714 47.5033 153.387 49.7874 153.387 52.6539C153.378 56.8854 151.795 60.9622 148.956 64.1836ZM151.986 43.5084C149.42 38.8765 149.32 38.4306 149.32 36.3831C149.32 36.0555 149.347 35.737 149.365 35.4094C149.747 33.2254 150.566 30.6046 152.295 28.5844L153.997 26.5733L146.699 26.2639L145.98 27.2376C144.469 29.4307 143.459 32.0424 143.077 34.645C142.913 35.5823 142.813 36.5196 142.813 37.4387C142.813 40.3598 143.387 42.0706 145.907 46.6115C147.709 49.8329 148.164 51.2161 148.164 53.3546C148.164 53.9825 148.119 54.6013 148.018 55.2292C147.418 58.396 145.662 61.4627 142.995 63.9015L140.902 65.8034L141.385 66.0127L149.338 66.1583L149.647 65.7943C152.168 63.037 153.779 59.6609 154.352 56.0937C154.57 54.9562 154.661 53.8005 154.661 52.6357C154.68 49.4962 153.952 47.021 151.986 43.5084Z" fill="#ACB2BC" fill-opacity="0.37"/>
<path d="M233.64 76.2684C233.012 76.0318 231.811 75.4949 230.71 75.0581C233.904 73.1198 235.442 69.9257 235.442 66.0582C235.442 63.765 234.914 62.0541 232.967 58.1047C230.592 53.2362 230.037 51.5527 230.037 49.1321C230.037 46.4749 230.874 44.0999 232.512 42.3618C233.185 42.6257 234.314 43.0261 235.324 43.4083C233.285 45.1464 232.83 47.7035 232.83 50.2879C232.83 52.6812 233.24 53.0998 235.761 58.2686C237.59 61.9996 238.381 64.8752 238.236 67.5324C238.063 71.2998 235.943 74.2573 233.64 76.2684ZM237.007 57.9683C234.414 52.663 234.314 52.2262 234.314 50.3061C234.314 48.6226 234.241 46.8571 235.397 45.5467C235.661 45.2828 236.116 44.7459 236.425 44.5093L238.254 42.9624L231.556 40.3416L230.401 41.4518C228.335 43.4629 227.498 46.5205 227.498 49.6782C227.498 52.39 228.071 54.4829 230.574 59.5789C232.375 63.2098 232.739 65.0754 232.739 67.041C232.739 69.4252 231.347 71.1268 229.882 72.6465C229.236 73.2289 228.444 73.8205 227.598 74.2209L226.925 74.5576L225.195 75.3584L225.796 75.4949L233.149 78.325L233.586 78.0792L235.269 76.8144C235.633 76.4776 235.988 76.0682 236.325 75.6132C238.245 73.4565 239.683 70.681 239.683 67.3321C239.674 64.4384 238.946 61.8904 237.007 57.9683Z" fill="#ACB2BC" fill-opacity="0.37"/>
<path d="M166.064 34.1899C165.345 34.1535 162.824 34.0625 162.824 34.0625L162.005 34.0352V34.8633V64.7841C161.304 64.7841 159.967 64.6749 159.239 64.6749V34.6995V33.926L158.493 33.8987L155.198 33.7713V30.7592C157.091 30.832 164.207 31.3325 166.055 31.4053M153.742 29.376L153.333 29.3123V36.2283C153.333 36.2283 156.045 36.3648 157.346 36.3921V67.5505L163.061 67.4412L163.589 66.6587V36.6014L167.574 36.7288L167.602 36.0463V30.1404L153.742 29.376Z" fill="#ACB2BC" fill-opacity="0.37"/>
<path d="M182.489 60.1067C182.489 62.0814 181.934 63.6557 180.906 64.6476C179.941 65.5758 178.604 65.9944 176.966 65.8852C173.435 65.6486 171.415 63.2371 171.415 59.2786V31.8239L174.181 32.015V59.5425C174.181 62.4181 175.883 62.955 176.893 63.0278C177.73 63.0915 178.403 62.8822 178.886 62.4181C179.441 61.8812 179.723 61.0167 179.723 59.861V32.5246C180.442 32.5701 181.816 32.7612 182.48 32.7976M178.139 31.0049L177.566 30.9412V60.2796C177.566 60.8802 177.111 61.3261 176.993 61.317C176.583 61.2897 175.746 61.226 175.746 59.4606V30.7865L169.886 30.377L169.312 30.3315V60.5071C169.312 65.2118 172.143 68.2239 176.42 68.5061C178.485 68.6425 180.242 67.9236 181.488 66.7042C182.234 66.0035 182.762 65.1026 183.117 64.0561C183.672 62.9368 183.982 61.5718 183.982 60.0248V31.5509L178.139 31.0049Z" fill="#ACB2BC" fill-opacity="0.37"/>
<path d="M207.924 69.5524C207.223 69.425 205.667 69.1793 205.139 69.0883V35.5184C205.903 35.6458 207.25 35.8278 207.924 35.9461M203.601 33.8531L202.637 33.7075V71.7455L208.16 72.5736L209.434 72.3279V34.7995L203.601 33.8531Z" fill="#ACB2BC" fill-opacity="0.37"/>
<path d="M219.572 66.5676C219.572 66.9953 219.162 67.2774 219.071 67.2501C218.352 67.0499 217.897 66.6222 217.897 64.7658V44.2089C217.897 43.4445 217.997 43.0441 218.061 42.8439C218.179 42.853 218.498 42.8712 218.634 42.8894C219.472 43.0532 219.572 44.0724 219.572 46.1381M219.253 40.9693C218.361 40.7782 217.715 40.9056 217.215 41.3151C216.642 41.8156 216.35 42.6983 216.35 44.127V64.9296C216.35 66.7132 216.687 68.5969 219.089 69.0883C219.954 69.2521 220.6 69.152 221.082 68.7425C221.656 68.2511 221.947 67.332 221.947 65.8578V45.0552C221.947 43.2898 221.61 41.4243 219.253 40.9693Z" fill="#ACB2BC" fill-opacity="0.37"/>
<path d="M224.759 67.6325C224.759 69.1886 224.276 70.4262 223.339 71.2179C222.356 72.0551 220.909 72.3281 219.253 72.0005C215.913 71.3362 213.584 68.5516 213.584 65.221V42.5165C213.584 40.9786 214.112 39.7046 215.049 38.9129C216.032 38.0666 217.479 37.7754 219.08 38.0848C222.374 38.7491 224.75 41.6156 224.75 44.9098M219.353 36.6925C217.288 36.283 215.413 36.6834 214.066 37.83C213.629 38.2031 212.647 39.4043 212.364 39.8866C211.454 41.0332 211.136 42.6985 211.136 44.3547V66.4677C211.136 70.5263 214.376 73.2927 218.434 74.0935C220.527 74.503 222.256 73.8933 223.74 72.8468C223.84 72.7831 224.267 72.2735 224.631 71.8458C225.66 70.772 226.215 69.2614 226.215 67.4414V44.9917C226.224 40.9786 223.339 37.4842 219.353 36.6925Z" fill="#ACB2BC" fill-opacity="0.37"/>
<path d="M192.308 59.7699V43.3262C192.308 43.3262 195.002 46.2018 195.138 51.953C195.284 57.1036 192.308 59.7699 192.308 59.7699ZM190.797 39.2312V62.691C190.797 62.691 197.04 60.0156 197.04 51.8074C197.04 43.1897 190.797 39.2312 190.797 39.2312Z" fill="#ACB2BC" fill-opacity="0.37"/>
<path d="M188.031 66.8954V34.099C195.502 38.0575 199.797 44.3729 199.797 51.8258C199.807 59.2423 195.502 64.6932 188.031 66.8954ZM188.159 32.3518L186.666 31.7512L185.802 31.4873V69.3979L187.367 68.9975C191.207 67.9874 194.31 66.1856 196.567 63.765C199.661 60.7529 201.344 56.6852 201.344 51.8258C201.335 43.6085 196.54 36.5196 188.159 32.3518Z" fill="#ACB2BC" fill-opacity="0.37"/>
<path d="M84.8826 50.2695V39.2221C86.2749 40.4324 87.1394 41.5062 87.1394 44.2817C87.1394 47.0481 86.1566 49.0046 84.8826 50.2695ZM83.1263 35.6003V54.4555C83.1263 54.4555 88.6955 51.0066 88.6955 44.0724C88.7046 37.5113 83.1263 35.6003 83.1263 35.6003Z" fill="#ACB2BC" fill-opacity="0.37"/>
<path d="M91.4892 64.1744L88.7046 64.3109V58.2048C88.7046 57.495 88.6318 56.9399 88.2678 56.585C87.9038 56.2392 87.376 56.1846 86.6844 56.2119L83.8725 56.3484L83.1263 56.3848V57.1492V64.5748C82.4256 64.6021 81.0333 64.6749 80.3144 64.7022V31.4417C87.4033 33.1889 91.4801 37.657 91.4801 43.7631C91.4801 47.0209 90.3972 49.9966 88.2132 52.581L87.2304 53.5911L88.6955 53.7822C90.8795 54.0552 91.4801 54.6194 91.4801 58.041M90.743 52.8722C92.5448 50.3515 93.4093 47.5942 93.4093 44.482C93.4093 40.9603 92.2536 37.9391 90.0514 35.5822C87.8674 33.0524 84.4094 30.9412 80.1324 30.0039L78.8129 29.7036V66.4858L79.4408 66.6132L84.9645 66.5768V58.4505C84.9645 58.4505 87.1485 58.3504 87.1485 58.3777V66.0581L87.6763 66.1855L92.1171 65.9944L93.4184 65.9489V58.5961C93.4184 56.4849 93.2 54.9925 92.2627 54.0279C91.8987 53.5274 91.4164 53.1361 90.743 52.8722Z" fill="#ACB2BC" fill-opacity="0.37"/>
<path d="M240.584 84.1397C240.584 73.8021 186.812 65.3027 120.5 65.3027C54.1883 65.3027 0.416401 73.6838 0.416401 84.0123V85.4319C0.416401 90.2003 11.8733 94.541 30.7285 97.8534V96.4429C18.6437 93.7857 11.2272 90.5734 10.3354 87.1063C12.665 77.8698 61.0861 70.4897 120.5 70.4897C179.914 70.4897 228.335 77.8698 230.665 87.1063C229.773 90.5734 222.356 93.7857 210.271 96.4429V97.8534C229.127 94.541 240.584 90.2003 240.584 85.4319" fill="#ACB2BC" fill-opacity="0.37"/>
<path d="M176.219 98.8999H180.587V99.5551H178.767V104.305H178.039V99.5551H176.219" fill="#ACB2BC" fill-opacity="0.37"/>
<path d="M185.92 104.305V101.12C185.92 100.957 185.92 100.274 185.92 99.7737L184.382 104.305H183.663L182.153 99.7737H182.125C182.125 100.274 182.153 100.957 182.153 101.12V104.305H181.434V98.9092H182.489L184.027 103.468H184.054L185.592 98.9092H186.621V104.305" fill="#ACB2BC" fill-opacity="0.37"/>
<path d="M191.225 103.15C191.489 102.64 191.635 102.14 191.662 101.776H191.034C190.961 102.176 190.934 102.285 190.816 102.613L189.833 101.439C190.215 101.166 190.797 100.793 190.797 100.028C190.797 99.4824 190.433 98.9182 189.596 98.9182C188.759 98.9182 188.295 99.4915 188.295 100.119C188.295 100.584 188.486 100.829 188.868 101.321C187.885 101.885 187.667 102.285 187.667 103.022C187.667 103.432 187.904 104.433 189.25 104.433C190.015 104.433 190.452 104.133 190.816 103.705L191.316 104.315H192.181M189.478 101.011C189.287 100.802 188.95 100.429 188.95 100.065C188.95 99.8919 189.023 99.4824 189.578 99.4824C189.796 99.4824 190.151 99.5916 190.151 100.083C190.151 100.538 189.76 100.811 189.478 101.011ZM190.461 103.25C190.17 103.65 189.787 103.86 189.305 103.86C188.996 103.86 188.34 103.632 188.34 102.959C188.34 102.376 188.677 102.131 189.25 101.757L190.461 103.25Z" fill="#ACB2BC" fill-opacity="0.37"/>
<path d="M196.294 102.149C196.221 102.558 195.884 102.858 195.402 102.858C194.729 102.858 194.301 102.276 194.301 101.594C194.301 100.893 194.683 100.356 195.384 100.356C195.866 100.356 196.203 100.62 196.294 101.038H196.794C196.694 100.265 196.094 99.8555 195.375 99.8555C194.365 99.8555 193.746 100.593 193.746 101.594C193.746 102.576 194.392 103.35 195.402 103.35C196.103 103.35 196.676 102.877 196.794 102.14M195.311 104.451C196.876 104.451 198.196 103.268 198.196 101.621C198.196 99.9829 196.876 98.7908 195.311 98.7908C193.746 98.7908 192.426 99.992 192.426 101.621C192.426 103.259 193.746 104.451 195.311 104.451ZM193.009 101.612C193.009 100.265 194.019 99.2549 195.311 99.2549C196.612 99.2549 197.613 100.265 197.613 101.612C197.613 102.977 196.603 103.969 195.311 103.969C194.01 103.969 193.009 102.977 193.009 101.612Z" fill="#ACB2BC" fill-opacity="0.37"/>
<path d="M174.226 93.4582C163.325 109.866 143.441 120.849 121.465 120.849C99.4881 120.849 79.4135 109.829 68.4844 93.4218L68.3388 93.3945C78.3306 111.949 96.4396 125.144 121.419 125.144C144.761 125.144 164.025 111.986 174.445 93.4491" fill="#ACB2BC" fill-opacity="0.37"/>
<path d="M132.776 91.5291C132.339 92.8759 131.884 94.2591 131.884 96.252C131.884 100.483 130.683 99.801 130.683 99.801C130.683 99.801 130.419 104.806 127.853 107.882C126.197 109.529 127.471 110.903 127.471 110.903C127.471 110.903 126.915 111.212 126.124 114.834C125.86 116.008 127.352 117.819 128.672 117.364C129.636 117.027 126.297 116.7 129.919 115.171C131.311 114.588 130.182 113.469 130.182 113.469C130.182 113.469 132.539 113.278 133.859 109.72C136.188 110.057 135.324 108.637 140.147 107.6C141.421 107.308 141.685 106.935 141.512 105.743C141.366 104.542 143.095 105.916 147.873 101.039C151.64 97.2075 152.05 94.8688 154.643 93.4856C155.344 93.1125 156.036 92.6211 156.709 92.0842" fill="#ACB2BC" fill-opacity="0.37"/>
<path d="M45.4523 92.1752L46.3623 90.9376V86.2238L39.3462 87.334V92.066L40.2653 93.0033L34.2047 93.9588L35.1238 92.7212V80.3998L34.2047 79.4625L40.2653 78.507L39.3462 79.7264V84.4311L46.3623 83.3118V78.6162L45.4523 77.6789L51.5038 76.7234L50.612 77.9428V90.2733L51.5038 91.2106" fill="#ACB2BC" fill-opacity="0.37"/>
<path d="M71.8878 82.3106C71.8878 76.8142 67.6108 74.9851 63.534 75.2217C59.4481 75.4583 55.1529 77.797 55.1529 83.2843C55.1529 88.7807 59.4481 90.628 63.534 90.3914C67.6199 90.1548 71.8878 87.807 71.8878 82.3106ZM67.356 82.5745C67.356 85.2499 66.2731 87.1427 63.534 87.2974C60.8222 87.4612 59.6938 85.6958 59.6938 83.0295C59.6938 80.345 60.8222 78.4704 63.534 78.3248C66.2731 78.1519 67.356 79.89 67.356 82.5745Z" fill="#ACB2BC" fill-opacity="0.37"/>
<path d="M75.4914 89.063L76.4014 87.9437V75.6132L75.4914 74.5576L81.5702 74.2937L80.6602 75.4312V85.8234L87.6217 85.5231L88.7046 84.5585V88.4897" fill="#ACB2BC" fill-opacity="0.37"/>
<path d="M92.381 88.4714L93.291 87.3339V75.0125L92.381 73.9569L98.4325 73.7112L97.5134 74.8305V85.2227L104.484 84.9315L105.585 83.976V87.9072" fill="#ACB2BC" fill-opacity="0.37"/>
<path d="M116.805 83.4846V86.9426L117.715 88.0346H111.664L112.574 86.9426V83.5756L106.14 73.5383H112.355L111.445 74.6212L115.122 80.4907L119.153 74.6212L118.243 73.5383H123.43" fill="#ACB2BC" fill-opacity="0.37"/>
<path d="M144.324 88.3532L140.647 88.2531L137.936 79.5535L135.297 88.1166L131.593 88.0165L126.77 73.4019L132.221 73.5384L131.329 74.594L133.804 82.6475L136.425 73.6476L140.074 73.7477L142.859 82.8841L145.143 74.9762L144.224 73.8569L149.029 73.9843" fill="#ACB2BC" fill-opacity="0.37"/>
<path d="M168.384 82.0013C168.384 76.5049 164.107 74.2845 160.03 74.148C155.944 74.0115 151.649 75.9589 151.649 81.4553C151.649 86.9517 155.944 89.1994 160.03 89.3359C164.116 89.4633 168.384 87.4977 168.384 82.0013ZM163.852 81.8466C163.852 84.5311 162.769 86.3147 160.03 86.2328C157.319 86.1418 156.19 84.2763 156.19 81.6009C156.19 78.9255 157.319 77.1601 160.03 77.242C162.769 77.333 163.852 79.1803 163.852 81.8466Z" fill="#ACB2BC" fill-opacity="0.37"/>
<path d="M188.95 83.9123C188.95 78.4159 184.673 76.0681 180.596 75.8133C176.51 75.5494 172.215 77.3603 172.215 82.8567C172.215 88.3531 176.51 90.7373 180.596 90.9921C184.673 91.2469 188.95 89.3996 188.95 83.9123ZM184.409 83.6212C184.409 86.3057 183.326 88.0619 180.587 87.889C177.875 87.7161 176.747 85.8142 176.747 83.1297C176.747 80.4543 177.875 78.7253 180.587 78.8982C183.326 79.0802 184.409 80.9549 184.409 83.6212Z" fill="#ACB2BC" fill-opacity="0.37"/>
<path d="M208.115 86.9973C208.115 80.2906 203.528 79.0985 199.424 78.4615L192.654 77.415L193.564 78.6344V90.9649L192.727 91.9113L199.424 92.9487C201.654 93.2945 208.115 94.5594 208.115 86.9973ZM203.647 86.1692C203.647 89.5817 202.828 90.4644 199.752 89.973L197.786 89.6727V81.2188L199.661 81.51C202.564 81.965 203.647 83.0388 203.647 86.1692Z" fill="#ACB2BC" fill-opacity="0.37"/>
</svg>
